<?xml version="1.0" encoding="UTF-8" standalone="no"?>
<svg
   xmlns:dc="http://purl.org/dc/elements/1.1/"
   xmlns:cc="http://creativecommons.org/ns#"
   xmlns:rdf="http://www.w3.org/1999/02/22-rdf-syntax-ns#"
   xmlns:svg="http://www.w3.org/2000/svg"
   xmlns="http://www.w3.org/2000/svg"
   viewBox="0 0 793.59998 50.133331"
   height="50.133331"
   width="793.59998"
   id="svg2"
   version="1.1">
  <metadata
     id="metadata8">
    <rdf:RDF>
      <cc:Work
         rdf:about="">
        <dc:format>image/svg+xml</dc:format>
        <dc:type
           rdf:resource="http://purl.org/dc/dcmitype/StillImage" />
        <dc:title></dc:title>
      </cc:Work>
    </rdf:RDF>
  </metadata>
  <defs
     id="defs6" />
  <path
     id="path817"
     d="m 825.80165,35.259049 c -8.43142,10.07817 -219.65942,4.43383 -435.02944,5.5527 C 252.01742,41.532599 83.309,49.252969 1.7416973,38.752799 -34.659266,34.066899 -38.603424,13.544139 -42.579943,3.2645059 -54.241998,-5.9619811 146.51712,2.9112719 346.14411,1.9376119 c 208.5692,-1.01727404 665.36539,-3.994015 483.56695,5.135938"
     style="fill:#808080;fill-rule:evenodd" />
  <path
     id="path820"
     d="M -35.590352,17.085147 599.95165,26.40643 829.71106,7.0735499"
     style="fill:none;stroke:#000000;stroke-width:1px;stroke-linecap:butt;stroke-linejoin:miter;stroke-opacity:1" />
  <path
     d="M 820.73511,33.953126 A 450.03928,7.4454279 0 0 1 373.85157,41.054507 450.03928,7.4454279 0 0 1 -78.103769,34.041528 450.03928,7.4454279 0 0 1 321.65975,26.208987 450.03928,7.4454279 0 0 1 815.29369,32.40536"
     id="path826"
     style="opacity:1;fill:#000000;fill-rule:evenodd;stroke:#000000;stroke-width:6.39785862;stroke-opacity:1" />
  <path
     id="path828"
     d="M -13.067923,33.332557 815.29369,32.40536"
     style="fill:none;stroke:#329300;stroke-width:1px;stroke-linecap:butt;stroke-linejoin:miter;stroke-opacity:1" />
</svg>
